<svg viewBox="0 0 10 8" fill="none" xmlns="http://www.w3.org/2000/svg" xmlns:xlink="http://www.w3.org/1999/xlink" x="0" y="0"><path id="Arrow_2" d="M5.952,0h2.092c0.148,0.78 0.38,1.46 0.697,2.05c0.318,0.59 0.737,1.05 1.259,1.36v1.22c-0.363,0.19 -0.669,0.47 -0.918,0.81c-0.261,0.35 -0.477,0.74 -0.647,1.17c-0.17,0.44 -0.3,0.9 -0.391,1.39h-2.194c0.102,-0.38 0.238,-0.77 0.409,-1.17c0.17,-0.38 0.379,-0.74 0.629,-1.07c0.249,-0.34 0.555,-0.64 0.918,-0.89v-0.07l-7.806,0.19v-1.98l7.806,0.21v-0.07c-0.351,-0.2 -0.646,-0.47 -0.884,-0.82c-0.238,-0.35 -0.437,-0.72 -0.595,-1.13c-0.159,-0.41 -0.284,-0.81 -0.375,-1.2z" fill="currentColor"/></svg>