<svg viewBox="0 0 120 120" fill="none" xmlns="http://www.w3.org/2000/svg" xmlns:xlink="http://www.w3.org/1999/xlink" x="0" y="0"><path id="Star" d="M56.381,7.693c1.441,-3.063 5.797,-3.063 7.238,0l7.002,14.883c0.936,1.99 3.302,2.851 5.298,1.928l14.931,-6.9c3.072,-1.42 6.41,1.381 5.545,4.653l-4.203,15.902c-0.562,2.126 0.697,4.306 2.819,4.882l15.873,4.312c3.266,0.887 4.023,5.178 1.257,7.128l-13.441,9.481c-1.797,1.267 -2.234,3.746 -0.979,5.551l9.388,13.506c1.932,2.779 -0.247,6.552 -3.62,6.269l-16.39,-1.378c-2.191,-0.184 -4.119,1.435 -4.318,3.624l-1.49,16.38c-0.306,3.371 -4.401,4.862 -6.802,2.476l-11.67,-11.59c-1.56,-1.55 -4.078,-1.55 -5.638,0l-11.67,11.59c-2.401,2.386 -6.496,0.895 -6.802,-2.476l-1.49,-16.38c-0.199,-2.189 -2.127,-3.808 -4.318,-3.624l-16.39,1.378c-3.373,0.283 -5.552,-3.49 -3.62,-6.269l9.388,-13.506c1.255,-1.805 0.818,-4.284 -0.979,-5.551l-13.441,-9.481c-2.766,-1.95 -2.009,-6.241 1.257,-7.128l15.873,-4.312c2.122,-0.576 3.381,-2.756 2.819,-4.882l-4.203,-15.902c-0.865,-3.272 2.473,-6.073 5.546,-4.653l14.93,6.9c1.996,0.923 4.362,0.062 5.298,-1.928z" fill="currentColor"/></svg>